<?xml version="1.0" encoding="utf-8"?>
<!-- Generator: Adobe Illustrator 24.2.0, SVG Export Plug-In . SVG Version: 6.00 Build 0)  -->
<svg version="1.1" id="레이어_1" xmlns="http://www.w3.org/2000/svg" xmlns:xlink="http://www.w3.org/1999/xlink" x="0px"
	 y="0px" viewBox="0 0 226.77 22.68" style="enable-background:new 0 0 226.77 22.68;" xml:space="preserve">
<style type="text/css">
	.st0{fill:#040000;}
	.st1{fill:none;}
</style>
<g>
	<path class="st0" d="M72.23,3.57l-7.6,13.77H52.17V3.57H40.84v15.65l26.23,0l0,0h8.09l1.72-4.05h7.41l1.72,4.05h11.57L88.96,3.57
		H72.23z M77.69,13.3l2.91-6.84l2.91,6.84H77.69z"/>
	<path class="st0" d="M203.69,3.57h-15.31v15.65h11.32v-7.21h3.99c6.99,0,13.03-0.42,13.03-2.1V5.68
		C216.72,3.99,210.68,3.57,203.69,3.57z M205.4,9.18c0,0.51-0.73,0.95-2.04,0.95h-3.65V5.45h3.65c1.32,0,2.04,0.45,2.04,0.95V9.18z"
		/>
	<polygon class="st0" points="157.36,3.57 146.06,3.57 139.52,8.12 139.52,3.57 128.19,3.57 128.19,19.21 139.52,19.21 
		139.52,14.26 146.09,19.21 158.3,19.21 146.57,11.07 	"/>
	<path class="st0" d="M25.97,3.57L10.66,3.58v15.64h15.31c8.57,0,13.03-1.25,13.03-2.41v-4.3c0-0.8-2.62-1.82-4.89-1.96
		c3.32,0,4.89-0.88,4.89-1.81V5.86C39,3.91,33.16,3.57,25.97,3.57z M27.67,16.39c0,0.51-0.73,0.95-2.04,0.95h-3.65v-5.87h3.65
		c1.32,0,2.04,0.45,2.04,0.95V16.39z M27.67,8.48c0,0.51-0.73,0.95-2.04,0.95h-3.65V5.45h3.65c1.32,0,2.04,0.45,2.04,0.95V8.48z"/>
	<path class="st0" d="M113.32,3.09h-2.28c-7.19,0-13.03,0.81-13.03,2.58v11.51c0,1.77,5.84,2.58,13.03,2.58h2.28
		c7.19,0,13.03-0.81,13.03-2.58v-3.96h-11.32c0,1.43,0,3.41,0,3.41c0,0.71-0.77,1.25-2.42,1.25h-0.86c-1.64,0-2.42-0.54-2.42-1.25
		V6.22c0-0.71,0.77-1.25,2.42-1.25h0.86c1.64,0,2.42,0.54,2.42,1.25v3.52h11.32V5.67C126.35,3.9,120.51,3.09,113.32,3.09z"/>
	<path class="st0" d="M175.22,16.65c0,0.71-0.77,1.24-2.41,1.25c0,0-0.05,0-0.05,0c0,0-0.83,0-0.83,0c-1.64,0-2.41-0.54-2.41-1.25
		V3.57H158.2v13.62c0,1.77,5.84,2.58,13.03,2.58h2.28c7.19,0,13.03-0.81,13.03-2.58V3.57h-11.32V16.65z"/>
</g>
<rect class="st1" width="226.77" height="22.68"/>
</svg>
